<?xml version="1.0" standalone="no"?>
<!DOCTYPE svg PUBLIC "-//W3C//DTD SVG 20010904//EN"
 "http://www.w3.org/TR/2001/REC-SVG-20010904/DTD/svg10.dtd">
<svg version="1.0" xmlns="http://www.w3.org/2000/svg"
 width="300.000000pt" height="300.000000pt" viewBox="0 0 300.000000 300.000000"
 preserveAspectRatio="xMidYMid meet">
<metadata>
Created by potrace 1.14, written by Peter Selinger 2001-2017
</metadata>
<g transform="translate(0.000000,300.000000) scale(0.100000,-0.100000)"
fill="#000000" stroke="none">
<path d="M170 2325 l0 -455 365 0 365 0 0 -220 0 -220 600 0 600 0 0 220 0
220 365 0 365 0 0 455 0 455 -1330 0 -1330 0 0 -455z"/>
<path d="M170 910 l0 -690 1330 0 1330 0 0 690 0 690 -280 0 -280 0 0 -215 0
-215 -775 0 -775 0 0 215 0 215 -275 0 -275 0 0 -690z"/>
</g>
</svg>
